<?xml version="1.0" encoding="UTF-8"?>
<!DOCTYPE svg PUBLIC "-//W3C//DTD SVG 1.1//EN" "http://www.w3.org/Graphics/SVG/1.1/DTD/svg11.dtd">
<!-- Creator: CorelDRAW 2017 -->
<svg xmlns="http://www.w3.org/2000/svg" xml:space="preserve" width="645px" height="535px" version="1.1" style="shape-rendering:geometricPrecision; text-rendering:geometricPrecision; image-rendering:optimizeQuality; fill-rule:evenodd; clip-rule:evenodd"
viewBox="0 0 645 535.39"
 xmlns:xlink="http://www.w3.org/1999/xlink">
 <defs>
  <style type="text/css">
   <![CDATA[
    .fil2 {fill:#3E60A9}
    .fil0 {fill:#489BCD}
    .fil1 {fill:#9ACC48}
   ]]>
  </style>
 </defs>
 <g id="Слой_x0020_1">
  <metadata id="CorelCorpID_0Corel-Layer"/>
  <path class="fil0" d="M183.57 146.15c38.6,-46.55 29.17,-115.8 -22.4,-146.15 7.96,146.15 -189.46,157.35 -157.63,325.01 4.42,-18.57 14.43,-35.95 27.69,-50.98 30.65,-34.77 67.48,-55.98 102.84,-84.86 15.32,-12.37 31.52,-25.63 45.67,-39.48 1.47,-0.89 2.65,-2.36 3.83,-3.54z"/>
  <path class="fil1" d="M228.65 107.85c-8.55,31.23 -17.97,45.08 -81.91,97.23 -35.07,28.58 -70.13,48.32 -100.48,82.51 -76.32,86.03 35.65,173.55 132.3,158.22 -12.38,-9.72 -21.8,-23.57 -27.4,-41.84 -7.37,-24.45 -7.37,-55.1 -0.3,-79.85 6.48,-22.39 17.68,-42.43 30.65,-61.58 7.95,-11.79 15.61,-23.57 23.27,-35.36 24.16,-38.3 34.77,-73.96 23.87,-119.33z"/>
  <path class="fil2" d="M644.99 533.03l-55.1 0 0 -14.44 29.17 -32.11 -27.99 0 0 -14.15 52.45 0 0 14.15 -29.76 32.7 30.94 0 0 13.85 0.29 0zm-84.86 -20.92l-6.48 -22.39 -6.19 22.39 12.67 0zm-18.56 20.92l-19.45 0 21.81 -60.99 20.33 0 21.8 60.99 -20.03 0 -2.36 -7.96 -20.04 0 -2.06 7.96zm-26.22 -33.59l0 33.59 -15.03 -0.29 0 -4.72c-1.77,2.07 -3.83,3.83 -6.19,4.72 -2.65,1.18 -6.48,1.77 -10.9,1.77 -8.25,0 -15.32,-2.66 -20.63,-7.66 -5.89,-5.6 -8.84,-13.56 -8.84,-23.58 0,-9.72 2.95,-17.68 8.55,-23.86 5.89,-6.19 13.55,-9.14 23.28,-9.14 7.66,0 13.84,1.77 18.85,5.6 5.31,4.12 8.84,9.72 10.02,16.8l-18.85 -0.01c-1.48,-5 -5.01,-7.66 -10.32,-7.66 -3.83,0 -6.77,1.48 -8.54,4.72 -2.07,3.24 -2.95,7.66 -2.95,12.96 0,5.01 0.88,8.84 2.65,11.49 2.07,3.25 5.6,5.01 10.32,5.01 2.06,0 4.42,-0.59 6.48,-2.06 2.06,-1.18 3.24,-2.95 3.83,-5.01l-8.25 0 0 -13.26 26.52 0 0 0.59zm-95.18 21.22c2.66,0 4.72,-0.3 6.19,-1.18 1.47,-0.89 2.06,-1.77 2.06,-3.24 0,-2.36 -2.94,-4.13 -9.13,-5.6 -8.55,-2.07 -14.14,-3.83 -16.8,-5.31 -6.18,-3.24 -9.13,-8.25 -9.13,-15.02 0,-6.19 2.36,-11.2 7.37,-14.44 4.71,-3.24 11.19,-5.01 19.15,-5.01 7.95,0 14.14,1.77 18.86,5.6 4.12,3.24 6.48,7.95 7.36,13.85l-18.85 0c-0.59,-1.77 -1.77,-3.25 -3.54,-4.13 -1.47,-0.59 -2.95,-0.88 -4.42,-0.88 -4.12,0 -6.48,1.18 -6.48,3.53 0,2.36 2.94,4.13 9.13,5.9 8.55,2.06 14.15,4.12 16.8,5.3 6.19,3.24 9.13,7.96 9.13,14.44 0,6.77 -2.65,12.08 -7.95,15.61 -5.01,3.54 -12.08,5.31 -20.63,5.31 -7.96,0 -14.44,-2.06 -19.45,-5.9 -5.01,-3.83 -7.66,-8.83 -7.66,-14.43l19.15 0c0.59,2.06 2.07,3.53 4.13,5.01 1.77,0 3.24,0.59 4.71,0.59zm-76.9 -48.62l21.8 33.29 -0.88 -13.85 0 -19.44 19.15 0 0 60.99 -18.86 0 -21.8 -33.29 0.88 13.84 0 19.45 -19.15 0 0 -60.99 18.86 0zm-51.27 40.07l-6.48 -22.39 -6.19 22.39 12.67 0zm-18.56 20.92l-19.45 0 21.8 -60.99 20.34 0 21.8 60.99 -20.04 0 -2.35 -7.96 -20.04 0 -2.06 7.96zm-61.29 -46.85l0 12.08 7.95 0c3.25,0 5.6,-0.29 7.08,-1.18 1.47,-0.88 2.35,-2.35 2.35,-4.42 0,-2.06 -0.88,-3.53 -2.35,-4.71 -1.48,-1.18 -3.54,-1.77 -5.9,-1.77l-9.13 0zm6.19 25.64l-6.19 0 0 21.21 -20.04 0 0 -60.99 28.88 0c10.02,0 16.79,1.47 21.21,4.12 3.83,2.65 5.9,7.07 5.9,13.26 0,3.54 -0.89,6.78 -2.36,9.43 -1.77,2.65 -4.42,4.72 -7.66,5.6 3.83,1.47 6.48,2.95 7.66,4.42 1.77,2.36 2.65,6.19 2.65,11.79 0,2.35 0,4.71 0,6.77 0,2.65 0.89,3.83 2.06,3.83l0 1.77 -20.33 0c-0.59,-1.77 -0.88,-5.3 -0.88,-10.61 0,-4.12 -0.59,-7.07 -1.77,-8.25 -1.77,-1.76 -4.71,-2.35 -9.13,-2.35zm-89.87 -23.87l0 -15.91 55.98 0 0 15.91 -17.97 0 0 45.08 -20.04 0 0 -45.08 -17.97 0zm-5.6 45.08l-55.1 0 0 -14.44 29.17 -32.11 -27.99 0 0 -14.15 52.45 0 0 14.15 -29.76 32.7 30.94 0 0 13.85 0.29 0zm-122.87 -26.52l0 -34.47 20.04 0 0 36.53c0,3.54 0.59,6.19 1.47,7.96 1.47,2.06 4.12,3.24 7.66,3.24 3.53,0 5.89,-0.88 7.37,-2.94 1.17,-1.77 2.06,-4.42 2.06,-8.25l0 -36.54 20.03 0 0 34.47c0,9.73 -2.35,16.8 -7.07,21.22 -4.71,4.42 -12.08,6.77 -22.39,6.77 -9.72,0 -17.09,-2.06 -21.8,-6.18 -4.72,-4.42 -7.37,-11.79 -7.37,-21.81zm168.83 -107.84c9.73,31.82 34.48,48.62 76.61,48.62l2.07 0c39.48,0 68.36,-21.22 68.36,-60.41l0 -95.46 -49.21 0 0 86.33c0,14.73 -3.24,31.23 -17.09,31.23l-12.08 0c-10.9,0 -17.97,-15.91 -17.97,-27.99l0 -14.14c0,-20.92 7.07,-55.99 13.26,-81.62 6.18,-25.93 12.08,-53.92 7.66,-86.92 -6.19,15.32 -12.67,26.81 -20.34,38.89 -7.95,12.38 -15.32,23.57 -23.57,35.65 -10.02,15.03 -21.8,34.18 -27.99,56.28 -5.89,21.22 -5.89,48.32 0.29,69.54zm323.24 -31.53l0 10.02c0,39.78 32.7,70.42 73.37,70.42 20.92,0 31.82,-5.3 42.13,-16.2l0 12.08 37.13 0 0 -83.39 -66.3 0 0 32.12 20.04 0c-0.88,9.43 -15.62,17.97 -26.23,17.97 -22.68,0 -31.23,-19.15 -31.23,-42.13 0,-18.86 7.07,-43.32 25.05,-43.32l7.95 0c10.02,0 20.33,10.02 21.22,19.15l47.14 0c0,-28.28 -33,-56.27 -62.46,-56.27l-17.09 0c-40.96,0 -70.72,36.53 -70.72,79.55zm-153.81 -36.24l44.2 0 0 112.56 50.09 0 0 -112.56 44.49 0 0 -39.19 -138.78 0 0 39.19z"/>
 </g>
</svg>
